M48
METRIC
T01C.8001
T02C1.
T03C1.016
;LEADER: 12 
;HEADER: 
;CODE  : ASCII 
;FILE  : MICROMOUSE_SHIELD-1-2.drl for  ... layers TOP and BOTTOM
;T01 Holesize 1. = 0.800100 Tolerance = +0.000000/-0.000000 PLATED MM Quantity = 29
;T02 Holesize 2. = 1.000000 Tolerance = +0.000000/-0.000000 PLATED MM Quantity = 91
;T03 Holesize 3. = 1.016000 Tolerance = +0.000000/-0.000000 PLATED MM Quantity = 29
%
G90
T01
X19354800Y17751400
R02Y00200000
X16583000Y18465800
X16783000
X16129000Y24257000
R07Y-00254000
X16583000Y20002500
X16783000
X16583000Y19431000
X16783000
X16583000Y18973800
X16783000
X17716500Y22606000
X20018400Y24206200
R02X-00200000
X20551800Y20777200
R02X-00200000
X20056500Y20447000
R02X-00200000
T02
X19685000Y19050000
X19532600Y19558000
X17068800Y21870000
X19456400Y21234400
X19786600Y20777200
X20675600Y20574000
X20193000Y18008600
X20320000Y18224500
X20574000Y18719800
X20828000Y19507200
X20091400Y19786600
X20878800Y20523200
X20574000Y22479000
X19126200Y23037800
X19964400Y22758400
X20414490Y22116290
X20495750Y20165550
X20510500Y18224500
X20764500Y17970500
X20327020Y18733600
X20777200Y19329400
X19888200Y19761200
X19735800Y20243800
X20142200
X20523200Y20497800
X19514100Y21564600
X16662400Y21844000
X19494500Y18923000
X20574000Y19236700
X20904200Y22682200
X20802600Y21564600
X20345400Y21590000
X20574000Y23495000
X19329400Y23037800
X19862800Y21488400
X20167600Y22326600
X19620990Y23965410
X19816060Y23973540
X20011140
X20206210Y23964390
X19735800Y18821400
X20421600Y19024600
X20243800Y19837400
X19634200
X20091400Y18897600
X20182690Y19547120
X20675600Y21691600
X20701000Y18986500
X19494500Y18669000
X20218400Y21691600
X19710400Y22301200
X20206210Y23203410
X19710400Y23317200
X20040600Y21539200
X19888200Y22377400
X19558000Y22199600
X20784800Y22504400
X20675600Y22809200
X19939000Y19050000
X19974710Y19561800
X20396200Y22606000
X19946110Y23259290
X16560800Y24257000
X17043400Y20523200
X17373600Y19812000
X16583000Y19199200
Y18716600
X17399000Y20066000
X16583000Y20266000
X17319600
X17170400Y19989800
X16586200Y19685000
X16891000Y22123400
X19354800Y17551400
X16383000Y18465800
Y21691600
X16129000
X16383000Y20002500
Y19431000
X16154400Y22123400
X16408400
X16383000Y18973800
X17145000Y18923000
R05Y-00254000
X20218400Y24206200
X20751800Y20777200
X20256500Y20447000
T03
X17716500Y22352000
R13Y-00254000
X19240500
R14Y00254000
M30
