G04 ================== begin FILE IDENTIFICATION RECORD ==================*
G04 Layout Name:  MICROMOUSE_SHIELD.brd*
G04 Film Name:    SOLDERMASK_BOTTOM*
G04 File Format:  Gerber RS274X*
G04 File Origin:  Cadence Allegro 16.6-P004*
G04 Origin Date:  Tue Jun 24 13:07:03 2025*
G04 *
G04 Layer:  VIA CLASS/SOLDERMASK_BOTTOM*
G04 Layer:  PIN/SOLDERMASK_BOTTOM*
G04 Layer:  BOARD GEOMETRY/SILKSCREEN_TOP*
G04 Layer:  BOARD GEOMETRY/SOLDERMASK_BOTTOM*
G04 *
G04 Offset:    (0.0000 0.0000)*
G04 Mirror:    No*
G04 Mode:      Positive*
G04 Rotation:  0*
G04 FullContactRelief:  No*
G04 UndefLineWidth:     0.0000*
G04 ================== end FILE IDENTIFICATION RECORD ====================*
%FSLAX35Y35*MOMM*%
%IR0*IPPOS*OFA0.00000B0.00000*MIA0B0*SFA1.00000B1.00000*%
%ADD12R,1.8999X1.8999*%
%ADD14R,1.4X.8001*%
%ADD15R,.4572X1.905*%
%ADD11C,1.7*%
%ADD13C,1.7239*%
%ADD10C,1.8999*%
%LPD*%
G75*
G54D10*
X16129000Y21691600D03*
X16408400Y22123400D03*
X17145000Y17653000D03*
Y17907000D03*
Y18161000D03*
Y18415000D03*
Y18669000D03*
G54D11*
X16129000Y22479000D03*
Y22733000D03*
Y22987000D03*
Y23241000D03*
Y23495000D03*
Y23749000D03*
Y24003000D03*
Y24257000D03*
X16783000Y18973800D03*
X16583000D03*
X16783000Y18465800D03*
X16583000D03*
X16783000Y19431000D03*
X16583000D03*
X16783000Y20002500D03*
X16583000D03*
X17716500Y22606000D03*
X19354800Y18151400D03*
Y17951400D03*
Y17751400D03*
X19656500Y20447000D03*
X19618400Y24206200D03*
X20151800Y20777200D03*
X20351800D03*
X19856500Y20447000D03*
X20056500D03*
X19818400Y24206200D03*
X20018400D03*
X20551800Y20777200D03*
G54D12*
X16154400Y22123400D03*
X16383000Y18973800D03*
Y18465800D03*
Y19431000D03*
Y20002500D03*
Y21691600D03*
X17145000Y18923000D03*
X19354800Y17551400D03*
X20256500Y20447000D03*
X20218400Y24206200D03*
X20751800Y20777200D03*
G54D13*
X17716500Y19050000D03*
Y19304000D03*
Y19558000D03*
Y19812000D03*
Y20066000D03*
Y20320000D03*
Y20574000D03*
Y20828000D03*
Y21082000D03*
Y21336000D03*
Y21590000D03*
Y21844000D03*
Y22098000D03*
Y22352000D03*
X19240500Y19558000D03*
Y19304000D03*
Y19050000D03*
Y20320000D03*
Y20066000D03*
Y19812000D03*
Y21082000D03*
Y20828000D03*
Y20574000D03*
Y21590000D03*
Y21336000D03*
Y22352000D03*
Y22098000D03*
Y21844000D03*
Y22606000D03*
G54D14*
X19621500Y18488000D03*
Y18288000D03*
Y21729700D03*
Y21148700D03*
Y21348700D03*
Y21929700D03*
X19875500Y18043500D03*
Y17843500D03*
Y18488000D03*
Y18288000D03*
Y21729700D03*
Y21929700D03*
G54D15*
X20152870Y17746980D03*
X20217890D03*
X20282920D03*
Y18448020D03*
X20217890D03*
X20152870D03*
X20089370Y21188680D03*
X20154390D03*
X20219420D03*
X20284440D03*
Y21889720D03*
X20219420D03*
X20154390D03*
X20089370D03*
X20347940Y17746980D03*
X20412960D03*
X20477990D03*
X20543010D03*
X20608040D03*
X20673060D03*
X20738080D03*
X20803110D03*
X20868130D03*
Y18448020D03*
X20803110D03*
X20738080D03*
X20673060D03*
X20608040D03*
X20543010D03*
X20477990D03*
X20412960D03*
X20347940D03*
X20349460Y21188680D03*
X20414490D03*
X20479510D03*
X20544540D03*
X20609560D03*
X20674580D03*
X20739610D03*
X20804630D03*
Y21889720D03*
X20739610D03*
X20674580D03*
X20609560D03*
X20544540D03*
X20479510D03*
X20414490D03*
X20349460D03*
M02*
