G04 ================== begin FILE IDENTIFICATION RECORD ==================*
G04 Layout Name:  MICROMOUSE_SHIELD.brd*
G04 Film Name:    SOLDERMASK_TOP*
G04 File Format:  Gerber RS274X*
G04 File Origin:  Cadence Allegro 16.6-P004*
G04 Origin Date:  Tue Jun 24 13:06:04 2025*
G04 *
G04 Layer:  VIA CLASS/SOLDERMASK_TOP*
G04 Layer:  PIN/SOLDERMASK_TOP*
G04 Layer:  BOARD GEOMETRY/SILKSCREEN_TOP*
G04 Layer:  BOARD GEOMETRY/SOLDERMASK_BOTTOM*
G04 *
G04 Offset:    (0.0000 0.0000)*
G04 Mirror:    No*
G04 Mode:      Positive*
G04 Rotation:  0*
G04 FullContactRelief:  No*
G04 UndefLineWidth:     0.0000*
G04 ================== end FILE IDENTIFICATION RECORD ====================*
%FSLAX35Y35*MOMM*%
%IR0*IPPOS*OFA0.00000B0.00000*MIA0B0*SFA1.00000B1.00000*%
%ADD12R,1.8999X1.8999*%
%ADD15R,1.4X.8001*%
%ADD14R,.4572X1.905*%
%ADD11C,1.7*%
%ADD13C,1.7239*%
%ADD10C,1.8999*%
%LPD*%
G75*
G54D10*
X16129000Y21691600D03*
X16408400Y22123400D03*
X17145000Y17653000D03*
Y17907000D03*
Y18161000D03*
Y18415000D03*
Y18669000D03*
G54D11*
X16129000Y22479000D03*
Y22733000D03*
Y22987000D03*
Y23241000D03*
Y23495000D03*
Y23749000D03*
Y24003000D03*
Y24257000D03*
X16783000Y18973800D03*
X16583000D03*
X16783000Y18465800D03*
X16583000D03*
X16783000Y19431000D03*
X16583000D03*
X16783000Y20002500D03*
X16583000D03*
X17716500Y22606000D03*
X19354800Y18151400D03*
Y17951400D03*
Y17751400D03*
X19656500Y20447000D03*
X19618400Y24206200D03*
X20151800Y20777200D03*
X20351800D03*
X19856500Y20447000D03*
X20056500D03*
X19818400Y24206200D03*
X20018400D03*
X20551800Y20777200D03*
G54D12*
X16154400Y22123400D03*
X16383000Y18973800D03*
Y18465800D03*
Y19431000D03*
Y20002500D03*
Y21691600D03*
X17145000Y18923000D03*
X19354800Y17551400D03*
X20256500Y20447000D03*
X20218400Y24206200D03*
X20751800Y20777200D03*
G54D13*
X17716500Y19050000D03*
Y19304000D03*
Y19558000D03*
Y19812000D03*
Y20066000D03*
Y20320000D03*
Y20574000D03*
Y20828000D03*
Y21082000D03*
Y21336000D03*
Y21590000D03*
Y21844000D03*
Y22098000D03*
Y22352000D03*
X19240500Y19558000D03*
Y19304000D03*
Y19050000D03*
Y20320000D03*
Y20066000D03*
Y19812000D03*
Y21082000D03*
Y20828000D03*
Y20574000D03*
Y21590000D03*
Y21336000D03*
Y22352000D03*
Y22098000D03*
Y21844000D03*
Y22606000D03*
G54D14*
X19581370Y19334480D03*
Y20035520D03*
X19620990Y23030180D03*
X19555970D03*
Y23731220D03*
X19620990D03*
X20296630Y19334480D03*
X20231610D03*
X20166580D03*
X20101560D03*
X20036540D03*
X19971510D03*
X19906490D03*
X19841460D03*
X19776440D03*
X19711420D03*
X19646390D03*
Y20035520D03*
X19711420D03*
X19776440D03*
X19841460D03*
X19906490D03*
X19971510D03*
X20036540D03*
X20101560D03*
X20166580D03*
X20231610D03*
X20296630D03*
X20271230Y23030180D03*
X20206210D03*
X20141180D03*
X20076160D03*
X20011140D03*
X19946110D03*
X19881090D03*
X19816060D03*
X19751040D03*
X19686020D03*
Y23731220D03*
X19751040D03*
X19816060D03*
X19881090D03*
X19946110D03*
X20011140D03*
X20076160D03*
X20141180D03*
X20206210D03*
X20271230D03*
G54D15*
X20764500Y19675500D03*
Y19875500D03*
Y20329500D03*
Y20129500D03*
X20510500Y19675500D03*
Y19875500D03*
X20548600Y23053700D03*
X20802600D03*
X20548600Y23253700D03*
X20802600D03*
Y23771200D03*
Y23571200D03*
M02*
